{"title":"The.Vanished.Murderer.2015.BRRip.480p.x264.AAC-VYTO [P2PDL]","uid":14336027,"size":504637233,"categoryP":"video","categoryS":"movies","magnet":"?xt=urn:btih:c22ec399edf6804a668b501e94d3b0ac04d96c83&amp;dn=The.Vanished.Murderer.2015.BRRip.480p.x264.AAC-VYTO+%5BP2PDL%5D&amp;tr=udp%3A%2F%2Ftracker.leechers-paradise.org%3A6969&amp;tr=udp%3A%2F%2Fzer0day.ch%3A1337&amp;tr=udp%3A%2F%2Fopen.demonii.com%3A1337&amp;tr=udp%3A%2F%2Ftracker.coppersurfer.tk%3A6969&amp;tr=udp%3A%2F%2Fexodus.desync.com%3A6969","seeders":0,"leechers":1,"uploader":"VYTOP2PDL","files":7,"time":1460709972,"description":"____    ____ ____    ____ .___________.  ______   \r\n     /   /      /   / |           | /  __    \r\n    /   /      /   /  `---|  |----`|  |  |  | \r\n        /     _    _/       |  |     |  |  |  | \r\n       /        |  |         |  |     |  `--'  | \r\n    __/         |__|         |__|      ______/  \r\n                                                  \r\nPresenting Small Encodes with quality for years!\r\n                                                                                                   \r\n                                                                                                   \r\n\r\n\r\nThe.Vanished.Murderer.2015.BRRip.480p.x264.AAC-VYTO\r\n\r\n\r\nGenre: Crime, Thriller  \nhttp://www.imdb.com/title/tt5190950/\r\n\r\n\r\nFormat                                   : MPEG-4\r\nFile size                                : 476 MiB\r\nDuration                                 : 2h 0mn\r\nOverall bit rate                         : 551 Kbps\r\n\r\nVideo\r\nFormat                                   : AVC\r\nBit rate                                 : 508 Kbps\r\nWidth                                    : 720 pixels\r\nHeight                                   : 304 pixels\r\nDisplay aspect ratio                     : 2.35:1\r\nFrame rate mode                          : Constant\r\nFrame rate                               : 24.000 fps\r\nBit depth                                : 8 bits\r\nStream size                              : 439 MiB (92%)\r\nWriting library                          : x264\r\n\r\nAudio\r\nFormat                                   : AAC\r\nBit rate mode                            : Variable\r\nBit rate                                 : 40.0 Kbps\r\nChannel(s)                               : 2 channels\r\nChannel positions                        : Front: L R\r\nSampling rate                            : 48.0 KHz \r\nStream size                              : 34.6 MiB (7%)\r\nLanguage                                 : Chinese\r\n\r\nSubtitle                                 : Yes (English)\r\n\r\nScreen Shots: (Click links to view)\r\n \nhttps://ititli.com/XVv \nhttps://ititli.com/XVR \nhttps://ititli.com/XVy \nhttps://ititli.com/XV3 \nhttps://ititli.com/XVE \nhttps://ititli.com/XVQ \nhttps://ititli.com/XVS \nhttps://ititli.com/XVZ \nhttps://ititli.com/XVc \nhttps://ititli.com/XVi \nhttps://ititli.com/XVp \nhttps://ititli.com/XVD\r\n\r\n----------------------------------------------------------------------------------------------------\r\n\r\n\r\nEncoder Notes: Looking For Early Access To Anything You Can Provide WEBDL, DVDScr, DVDR, BluRay,\r\nDirect Audio, Music Releases and Seedboxes. If You Got anything to offer please contact us.\r\n\r\nSupport us by donating BC - 1FgwdzPsd1y25Gea8wP1qni35uGCtmkRCD\r\n\r\nFind us and join us!","torrent":{"xt":"urn:btih:c22ec399edf6804a668b501e94d3b0ac04d96c83","amp;dn":"The.Vanished.Murderer.2015.BRRip.480p.x264.AAC-VYTO+%5BP2PDL%5D","amp;tr":["udp%3A%2F%2Ftracker.leechers-paradise.org%3A6969","udp%3A%2F%2Fzer0day.ch%3A1337","udp%3A%2F%2Fopen.demonii.com%3A1337","udp%3A%2F%2Ftracker.coppersurfer.tk%3A6969","udp%3A%2F%2Fexodus.desync.com%3A6969"],"infoHash":"c22ec399edf6804a668b501e94d3b0ac04d96c83","infoHashBuffer":{"type":"Buffer","data":[194,46,195,153,237,246,128,74,102,139,80,30,148,211,176,172,4,217,108,131]},"announce":[],"urlList":[]}}